<?xml version="1.0" encoding="UTF-8"?>
<svg xmlns="http://www.w3.org/2000/svg" version="1.1" viewBox="0 0 1916 430">
  <defs>
    <style>
      .cls-1 {
        fill: #231f20;
      }
    </style>
  </defs>
  <!-- Generator: Adobe Illustrator 28.7.2, SVG Export Plug-In . SVG Version: 1.2.0 Build 154)  -->
  <g>
    <g id="Layer_1">
      <g>
        <polygon class="cls-1" points="290.69 187.35 144.98 187.35 144.98 78.19 73 78.19 73 350.86 144.98 350.86 144.98 230.57 290.69 230.57 290.69 350.86 363.11 350.86 363.11 78.19 290.69 78.19 290.69 187.35"/>
        <rect class="cls-1" x="422.64" y="78.19" width="72.87" height="272.66"/>
        <rect class="cls-1" x="1770.14" y="78.19" width="72.86" height="272.66"/>
        <polygon class="cls-1" points="805.17 78.19 522.16 78.19 522.16 123.63 627.9 123.63 627.9 350.86 699.43 350.86 699.43 123.63 805.17 123.63 805.17 78.19"/>
        <path class="cls-1" d="M872.26,78.64l-129.28,272.22h80.85l25.33-61.04h136.38l24.89,61.04h81.32l-128.41-272.22h-91.08ZM867.36,246.6l50.21-121.63,49.76,121.63h-99.97Z"/>
        <path class="cls-1" d="M1241.9,315.66c-27.99,0-85.31-5.78-86.18-100.24-.89-89.1,51.53-101.57,86.18-101.57,34.21.43,68.42,16.48,68.86,57.01h73.76c-.91-49.46-43.55-96.68-142.63-97.57-73.74-.44-163.05,29.85-163.5,140.78-.44,110.04,90.64,144.34,163.5,142.56,67.08-2.22,141.72-20.93,144.85-103.8l-74.2.44c-2.22,51.69-43.53,61.93-70.63,62.37Z"/>
        <polygon class="cls-1" points="1639.97 187.35 1494.23 187.35 1494.23 78.19 1422.29 78.19 1422.29 350.86 1494.23 350.86 1494.23 230.57 1639.97 230.57 1639.97 350.86 1711.93 350.86 1711.93 78.19 1639.97 78.19 1639.97 187.35"/>
      </g>
    </g>
  </g>
</svg>